<?xml version="1.0" standalone="no"?>
<!DOCTYPE svg PUBLIC "-//W3C//DTD SVG 20010904//EN"
 "http://www.w3.org/TR/2001/REC-SVG-20010904/DTD/svg10.dtd">
<svg version="1.0" xmlns="http://www.w3.org/2000/svg"
 width="449.000000pt" height="421.000000pt" viewBox="0 0 449.000000 421.000000"
 preserveAspectRatio="xMidYMid meet">

<g transform="translate(0.000000,421.000000) scale(0.100000,-0.100000)"
fill="#000000" stroke="none">
<path d="M3588 3758 l-3 -83 -272 -3 -271 -2 -7 30 c-4 16 -20 41 -37 55 -27
23 -38 25 -122 25 -107 0 -136 -14 -156 -75 l-12 -35 -591 0 c-350 0 -619 -4
-657 -10 -82 -13 -207 -54 -285 -92 -195 -98 -387 -308 -465 -508 -16 -44 -37
-105 -45 -135 -18 -71 -21 -75 -51 -75 -15 0 -38 -12 -55 -29 -28 -29 -29 -33
-29 -126 0 -97 0 -97 34 -131 20 -20 44 -34 59 -34 22 0 26 -7 41 -67 100
-395 429 -694 818 -743 48 -6 329 -10 679 -10 589 0 638 -2 677 -33 9 -7 10
-13 2 -21 -5 -5 -10 -55 -10 -113 0 -98 1 -105 26 -130 24 -24 24 -26 9 -43
-40 -44 -90 -50 -429 -50 l-321 1 -20 42 c-26 55 -53 67 -150 67 -96 0 -137
-19 -155 -74 l-12 -36 -172 0 c-203 0 -247 -11 -310 -74 -23 -23 -56 -70 -75
-106 -68 -130 -90 -142 -276 -149 -127 -6 -145 -9 -198 -34 -128 -63 -207
-180 -215 -318 l-5 -79 627 0 626 0 6 -24 c3 -13 19 -37 35 -52 29 -28 34 -29
129 -29 110 0 129 9 152 71 l12 34 336 0 c382 0 466 8 603 54 301 103 531 355
612 671 21 83 25 90 52 97 16 4 42 21 58 38 29 30 30 35 29 121 -1 108 -17
137 -85 158 -44 13 -44 14 -67 90 -94 306 -315 528 -635 637 l-112 38 -675 6
-675 5 -47 28 c-27 15 -48 30 -48 33 0 3 10 19 22 35 20 27 23 41 21 122 -1
75 -5 95 -23 119 -26 36 -19 47 50 77 48 21 58 21 616 19 l568 -3 8 -32 c14
-52 46 -66 151 -67 106 0 139 14 157 70 l12 34 274 0 274 0 0 -80 0 -80 160 0
160 0 0 545 0 545 -160 0 -159 0 -3 -82z m220 -465 l-3 -438 -52 -3 -53 -3 0
440 0 441 55 0 55 0 -2 -437z m-878 2 l0 -385 -55 0 -55 0 0 378 c0 208 3 382
7 385 3 4 28 7 55 7 l48 0 0 -385z m-220 0 l0 -274 -587 -3 -588 -3 -62 -32
c-37 -20 -79 -53 -105 -83 l-43 -50 -283 0 -283 0 7 38 c4 20 17 64 29 97 116
313 387 531 715 575 30 4 313 8 628 9 l572 1 0 -275z m880 220 l0 -55 -275 0
-275 0 0 55 0 55 275 0 275 0 0 -55z m0 -220 l0 -55 -275 0 -275 0 0 55 0 55
275 0 275 0 0 -55z m0 -220 l0 -55 -275 0 -275 0 0 55 0 55 275 0 275 0 0 -55z
m-2190 -380 l0 -55 -385 0 -385 0 0 48 c0 27 3 52 7 55 3 4 177 7 385 7 l378
0 0 -55z m-60 -173 c0 -25 78 -95 138 -124 l67 -33 675 -6 c747 -6 713 -3 867
-74 102 -47 176 -99 255 -178 99 -100 189 -255 213 -364 l7 -33 -299 0 -300 0
-24 26 c-13 14 -42 36 -64 47 -39 22 -49 22 -700 28 -715 6 -716 6 -871 64
-187 70 -375 238 -464 415 -25 50 -80 208 -80 231 0 5 114 9 290 9 160 0 290
-4 290 -8z m2360 -977 l0 -55 -385 0 -385 0 0 55 0 55 385 0 385 0 0 -55z
m-133 -210 c-9 -59 -58 -185 -104 -265 -21 -36 -76 -104 -123 -151 -92 -92
-183 -152 -294 -194 -135 -51 -179 -55 -572 -55 l-364 0 0 275 0 275 353 0
c349 0 352 0 403 24 31 15 69 45 100 80 l49 56 279 0 279 0 -6 -45z m-1567
-395 l0 -380 -55 0 -55 0 0 380 0 380 55 0 55 0 0 -380z m-220 5 l0 -275 -570
0 c-314 0 -570 2 -570 5 0 3 7 22 15 41 25 61 73 112 132 140 49 25 71 28 197
34 77 4 154 12 170 19 60 25 103 70 151 161 73 138 95 147 328 149 l147 1 0
-275z"/>
<path d="M1514 3450 c-158 -21 -316 -100 -435 -219 -72 -72 -159 -199 -159
-232 0 -15 58 -49 83 -49 7 0 24 24 39 53 90 184 289 314 526 342 l52 7 0 54
c0 61 7 58 -106 44z"/>
<path d="M1730 3405 l0 -55 55 0 55 0 0 55 0 55 -55 0 -55 0 0 -55z"/>
<path d="M948 2413 l-38 -16 36 -67 c70 -133 175 -237 316 -314 106 -58 186
-78 336 -83 l132 -6 0 50 0 50 -112 6 c-122 6 -213 29 -308 77 -105 54 -222
172 -273 278 -23 46 -32 48 -89 25z"/>
<path d="M1883 2033 l-43 -4 0 -50 0 -49 56 0 55 0 -3 52 c-3 56 -3 56 -65 51z"/>
<path d="M3292 1216 c-67 -130 -199 -243 -343 -293 -71 -24 -196 -42 -296 -43
l-53 0 0 -50 0 -50 116 0 c307 0 552 148 687 417 l26 51 -40 16 c-21 9 -45 16
-52 16 -6 0 -27 -29 -45 -64z"/>
<path d="M2380 835 l0 -55 55 0 55 0 0 55 0 55 -55 0 -55 0 0 -55z"/>
</g>
</svg>
